<svg width="40" height="49" viewBox="0 0 40 49" fill="none" xmlns="http://www.w3.org/2000/svg">
<path d="M20.2589 42.9993C30.6839 42.9993 39.1349 34.8316 39.1349 24.7563C39.1349 14.6809 30.6839 6.51318 20.2589 6.51318C9.83401 6.51318 1.38293 14.6809 1.38293 24.7563C1.38293 34.8316 9.83401 42.9993 20.2589 42.9993Z" fill="#D3D29E" stroke="black"/>
<path d="M20.2589 40.1349C29.0469 40.1349 36.1709 33.2497 36.1709 24.7564C36.1709 16.2631 29.0469 9.37793 20.2589 9.37793C11.471 9.37793 4.34692 16.2631 4.34692 24.7564C4.34692 33.2497 11.471 40.1349 20.2589 40.1349Z" fill="#DAECE1" stroke="black"/>
<path d="M32.1524 13.4758C35.1499 14.8629 37.1675 14.1987 38.4442 12.5678C35.8452 12.1634 33.5364 9.66846 31.2816 8.10447C26.3764 4.70282 23.4919 6.36158 20.2521 0.978516C17.0126 6.36068 14.1282 4.70191 9.2229 8.10357C6.96745 9.66747 4.65959 12.1623 2.0625 12.5669C3.33945 14.1977 5.35691 14.8619 8.35429 13.4749C11.7033 16.9778 12.8075 7.68352 20.2521 13.7874C27.697 7.68455 28.8012 16.9789 32.1512 13.4759L32.1524 13.4758Z" fill="url(#paint0_linear_358_2440)" stroke="black"/>
<path d="M20.259 10.3126C21.448 10.3126 22.4118 9.38107 22.4118 8.23198C22.4118 7.08289 21.448 6.15137 20.259 6.15137C19.07 6.15137 18.1062 7.08289 18.1062 8.23198C18.1062 9.38107 19.07 10.3126 20.259 10.3126Z" fill="black"/>
<path d="M15.3269 8.73364C12.9722 9.56091 11.7701 10.1488 10.1658 11.2524L15.3269 8.73364Z" fill="black"/>
<path d="M15.3269 8.73364C12.9722 9.56091 11.7701 10.1488 10.1658 11.2524" stroke="black" stroke-width="2" stroke-linecap="round"/>
<path d="M25.1287 8.73364C27.4834 9.56091 28.6855 10.1488 30.2898 11.2524L25.1287 8.73364Z" fill="black"/>
<path d="M25.1287 8.73364C27.4834 9.56091 28.6855 10.1488 30.2898 11.2524" stroke="black" stroke-width="2" stroke-linecap="round"/>
<path d="M32.1524 35.5242C35.15 34.1371 37.1675 34.8013 38.4442 36.4322C35.8452 36.8366 33.5364 39.3315 31.2816 40.8955C26.3764 44.2972 23.4919 42.6384 20.2521 48.0215C17.0126 42.6393 14.1282 44.2981 9.2229 40.8964C6.96745 39.3325 4.65959 36.8377 2.0625 36.4331C3.33945 34.8023 5.35691 34.1381 8.35429 35.5251C11.7033 32.0222 12.8075 41.3165 20.2521 35.2126C27.697 41.3155 28.8012 32.0211 32.1512 35.5241L32.1524 35.5242Z" fill="url(#paint1_linear_358_2440)" stroke="black"/>
<path d="M20.259 38.6874C21.448 38.6874 22.4118 39.6189 22.4118 40.768C22.4118 41.9171 21.448 42.8486 20.259 42.8486C19.07 42.8486 18.1062 41.9171 18.1062 40.768C18.1062 39.6189 19.07 38.6874 20.259 38.6874Z" fill="black"/>
<path d="M15.3269 40.2664C12.9722 39.4391 11.7701 38.8512 10.1658 37.7476L15.3269 40.2664Z" fill="black"/>
<path d="M15.3269 40.2664C12.9722 39.4391 11.7701 38.8512 10.1658 37.7476" stroke="black" stroke-width="2" stroke-linecap="round"/>
<path d="M25.1287 40.2664C27.4834 39.4391 28.6855 38.8512 30.2898 37.7476L25.1287 40.2664Z" fill="black"/>
<path d="M25.1287 40.2664C27.4834 39.4391 28.6855 38.8512 30.2898 37.7476" stroke="black" stroke-width="2" stroke-linecap="round"/>
<defs>
<linearGradient id="paint0_linear_358_2440" x1="2.0625" y1="2.97546" x2="2.0625" y2="12.9602" gradientUnits="userSpaceOnUse">
<stop stop-color="#DDDDA6"/>
<stop offset="1" stop-color="#948A6A"/>
</linearGradient>
<linearGradient id="paint1_linear_358_2440" x1="2.0625" y1="46.0245" x2="2.0625" y2="36.0398" gradientUnits="userSpaceOnUse">
<stop stop-color="#DDDDA6"/>
<stop offset="1" stop-color="#948A6A"/>
</linearGradient>
</defs>
</svg>
